<?xml version="1.0" encoding="UTF-8"?>
<!-- Generator: Adobe Illustrator 18.1.0, SVG Export Plug-In . SVG Version: 6.00 Build 0)  -->
<svg version="1.1" id="Layer_1" xmlns="http://www.w3.org/2000/svg" xmlns:xlink="http://www.w3.org/1999/xlink" x="0px" y="0px" viewBox="0 0 300 300" enable-background="new 0 0 300 300" xml:space="preserve">
<g>
	<path fill="none" d="M76.2,112.6c-4.8-0.9-9.5-0.7-13.9,0.4c-5,1.3-9.3,3.9-12.6,7.2c-3.9,4.1-6.1,9.6-5,15.6   c0.9,4.3,3,8.9,7.4,13.5c-3.7,4.3-5.6,8.7-6.3,12.6c-2.6,15.8,15.6,27.1,32.8,22.6c12.8-3.5,24.3-14.1,32.5-23.4   c5-5.4,8.7-10.6,10.6-13.7c1.1-1.7,1.7-3.1,1.7-3.1S100.9,117.1,76.2,112.6z"/>
	<path fill="none" d="M221.6,189.9c18,4.8,37.1-7.6,32.3-24.5c-1.1-3.3-2.8-6.7-5.9-10.4c3.9-4.3,6.3-8.5,7.2-12.4   c3.7-15.8-13.7-27.6-31.3-24.3c-1.5,0.2-3,0.7-4.6,1.1c-9.3,2.8-18.4,8.5-25.6,14.3c-3.7,2.8-7,5.9-9.6,8.5l-0.2,0.2   c-3,2.8-5.2,5.2-6.3,6.5c-0.7,0.6-1.1,1.1-1.1,1.1c0.2,0.2,1.5,2.6,3.9,5.9C187.8,165.8,203.6,185.1,221.6,189.9z"/>
	<path fill="#231F20" d="M164.5,161.9c0.1-0.1,0.1-0.1,0.2-0.2h0L164.5,161.9z"/>
	<path fill="#231F20" d="M133.3,103.7c-0.4-0.4-0.7-0.7-1-1c0,0,0,0,0,0C132.6,103,132.9,103.3,133.3,103.7z"/>
	<path fill="#E24301" d="M275.6,103c-12.2-13-28-20.2-44.7-21.9c-16.7-1.7-33.9,2.4-48.2,12.4c-12.4,8.7-23,19.5-33.6,30.2   c-3,3-6.1,6.1-10.4,10.2c-0.7,0.7-1.5,1.5-2.4,2.2l-0.4,0.4l-1.1,1.1c-8.7-9.6-17.4-19.3-26.7-27.6c-9.6-8.2-21.5-12.4-33.4-11.9   c-11.7,0.4-23.4,4.8-32.8,13.5c-10,9.3-15.2,21.9-15.4,34.5c-0.4,12.8,3.9,25.6,13.5,35.4c8.5,8.9,19.5,14.1,30.8,15.2   c11.5,1.3,23.4-1.5,33.4-8.5c10.8-7.4,20.6-17.4,30.2-27.1c3.9-3.9,7.8-7.6,11.5-11.5l2.2-1.9c0.2-0.2,0.2-0.2,0.4-0.4   c0,0,0,0,0.2-0.2c0.4-0.4,1.1-0.9,1.5-1.5c4.1-4.1,8.2-8.2,12.6-12.4c3.5-3.5,6.7-7,10.2-10.2c6.3-5.9,12.6-11.5,19.5-16.3   c11.1-7.8,24.3-10.8,37.3-9.6c12.6,1.3,25,7,34.5,16.9c10.4,11.1,15.4,25.4,15,39.5c-0.4,14.1-6.3,28-17.4,38.4   c-10.4,9.8-23.4,14.8-36.7,15c-13.2,0.2-25.7-3.3-36.2-11.3c-3.7-3.3-9.5-7.9-12.9-11.4l3.9-3.5l-23.8-6.8l5.6,25l3.9-3.9   c3.7,3.7,7.6,7.4,11.5,10.8c13.9,11.9,31,17.8,48.4,17.4c17.1-0.4,34.1-6.7,47.5-19.3c14.3-13.5,21.9-31.7,22.4-49.9   C295.6,135.8,289.3,117.4,275.6,103z M121.8,147.3c-1.9,3-5.6,8.2-10.6,13.7c-8.2,9.3-19.8,20-32.5,23.4   c-17.1,4.6-35.4-6.7-32.8-22.6c0.7-3.9,2.6-8.2,6.3-12.6c-4.3-4.6-6.5-9.1-7.4-13.5c-1.1-6.1,1.1-11.5,5-15.6   c3.3-3.3,7.6-5.9,12.6-7.2c4.3-1.1,9.1-1.3,13.9-0.4c24.7,4.6,47.3,31.7,47.3,31.7S122.9,145.6,121.8,147.3z"/>
	<path fill="none" stroke="#2EC1DE" stroke-width="0" stroke-linecap="round" stroke-linejoin="round" d="M148.9,177.3   c0.1,0,0.1,0,0.1,0"/>
	<path fill="#2EC1DE" d="M160.4,165.8c1.3-1.3,2.8-2.6,4.1-4.1h0.2h0h0c0,0,0.2,0.7,0.4,0.9c0.9,0.9,19.8,21.3,20.2,21.7   c0.7,0.7,4.6,4.1,5.6,5c9.6,8.2,21.5,12.4,33.4,11.9c11.7-0.2,23.4-4.8,32.8-13.5c10-9.3,15.2-21.9,15.4-34.5   c0.4-12.6-4.1-25.4-13.5-35.4c-8.5-8.9-19.5-14.1-30.8-15.2c-11.5-1.3-23.4,1.5-33.4,8.5c-1.5,1.1-5.4,3.9-5.9,4.3   c-1.1,0.9-3.9,3.5-4.6,3.9c-1.1,0.9-11.1,10-12.4,11.3c0,0-36.5,36.7-37.6,37.6c-0.2,0.2-0.2,0.2-0.4,0.4c-0.9,0.9-1.7,1.7-2.6,2.6   c-0.4,0.4-0.9,0.9-1.3,1.3c-0.9,0.9-1.9,1.9-2.8,2.8c-0.4,0.4-0.9,0.9-1.3,1.1c-0.9,0.9-1.5,1.5-2.4,2.4c-0.4,0.4-0.9,0.9-1.3,1.3   c-0.9,0.7-1.5,1.5-2.4,2.2c-0.4,0.4-0.9,0.9-1.3,1.3c-0.9,0.7-1.7,1.5-2.4,2.2c-0.4,0.4-0.9,0.7-1.3,1.1c-0.9,0.7-1.7,1.5-2.8,2.2   c-0.4,0.2-0.7,0.7-1.1,0.9c-1.3,1.1-2.6,1.9-3.9,2.8c-11.1,7.8-24.3,10.8-37.3,9.6c-12.6-1.3-25-7-34.5-16.9   c-10.4-11.1-15.4-25.4-15-39.5c0.4-14.1,6.3-28,17.4-38.4c10.4-9.8,23.4-14.8,36.7-15c13.2-0.2,26.7,4.1,37.3,13.5   c1.3,1.1,2.4,2.2,3.7,3.3c2.2,1.9,4.3,4.1,6.5,6.5l-2.6,2.4l7.2,2.2h0.2l4.3,1.3l12.6,3.9l-3.7-25.4l-5.4,5   c-0.4-0.4-0.9-0.9-1.3-1.3c-0.3-0.3-0.7-0.7-0.9-1c0,0,0,0,0,0c-0.1-0.1-0.1-0.2-0.2-0.3l-0.2-0.2c-1.3-1.3-2.8-2.6-4.1-3.9   c-1.7-1.5-3.3-3-5-4.6c-13.9-11.9-31-17.8-48.4-17.4c-17.1,0.4-34.1,6.7-47.5,19.3C12.3,109.1,5,127.2,4.3,145.4   s5.9,36.7,19.3,51.2c12.2,13,28.2,20.2,44.7,21.9c16.7,1.7,33.9-2.4,48.2-12.4c1.5-1.1,3-2.2,4.6-3.3c0.4-0.2,0.7-0.7,1.1-0.9   c1.1-0.9,2.2-1.7,3.3-2.6c0.7-0.4,1.1-1.1,1.7-1.5c0.9-0.7,1.7-1.3,2.4-2.2c0.9-0.7,1.5-1.3,2.4-2.2c0.7-0.4,1.1-1.1,1.7-1.5   c0.9-0.9,1.9-1.7,2.8-2.6c0.4-0.4,0.7-0.7,1.1-1.1c0.9-0.9,6.4-6.1,9.7-9.4c0.4-0.4,1-1,1.7-1.7C152,174.1,157.7,168.5,160.4,165.8   z M177.8,148.8c1.1-1.3,3.3-3.7,6.3-6.5l0.2-0.2c2.6-2.6,5.9-5.6,9.6-8.5c7.2-5.9,16.3-11.5,25.6-14.3c1.5-0.4,3-0.9,4.6-1.1   c17.6-3.3,35,8.5,31.3,24.3c-0.9,3.9-3.3,8-7.2,12.4c3,3.7,4.8,7.2,5.9,10.4c4.8,16.9-14.3,29.3-32.3,24.5   c-18-4.8-33.9-24.1-41-34.1c-2.4-3.3-3.7-5.6-3.9-5.9C176.7,149.9,177.1,149.5,177.8,148.8z"/>
</g>
</svg>